<svg width="48" height="13" viewBox="0 0 48 13" fill="none" xmlns="http://www.w3.org/2000/svg">
<path d="M4.5 12.5H0.909091V0.863636H4.65909C5.78788 0.863636 6.75379 1.09659 7.55682 1.5625C8.35985 2.02462 8.97538 2.68939 9.40341 3.55682C9.83144 4.42045 10.0455 5.45455 10.0455 6.65909C10.0455 7.87121 9.82955 8.91477 9.39773 9.78977C8.96591 10.661 8.33712 11.3314 7.51136 11.8011C6.68561 12.267 5.68182 12.5 4.5 12.5ZM2.31818 11.25H4.40909C5.37121 11.25 6.16856 11.0644 6.80114 10.6932C7.43371 10.322 7.9053 9.79356 8.21591 9.10795C8.52652 8.42235 8.68182 7.60606 8.68182 6.65909C8.68182 5.7197 8.52841 4.91098 8.22159 4.23295C7.91477 3.55114 7.45644 3.02841 6.84659 2.66477C6.23674 2.29735 5.47727 2.11364 4.56818 2.11364H2.31818V11.25ZM15.8864 12.6818C15.0455 12.6818 14.3201 12.4962 13.7102 12.125C13.1042 11.75 12.6364 11.2273 12.3068 10.5568C11.9811 9.88258 11.8182 9.09848 11.8182 8.20455C11.8182 7.31061 11.9811 6.52273 12.3068 5.84091C12.6364 5.1553 13.0947 4.62121 13.6818 4.23864C14.2727 3.85227 14.9621 3.65909 15.75 3.65909C16.2045 3.65909 16.6534 3.73485 17.0966 3.88636C17.5398 4.03788 17.9432 4.28409 18.3068 4.625C18.6705 4.96212 18.9602 5.40909 19.1761 5.96591C19.392 6.52273 19.5 7.20833 19.5 8.02273V8.59091H12.7727V7.43182H18.1364C18.1364 6.93939 18.0379 6.5 17.8409 6.11364C17.6477 5.72727 17.3712 5.42235 17.0114 5.19886C16.6553 4.97538 16.2348 4.86364 15.75 4.86364C15.2159 4.86364 14.7538 4.99621 14.3636 5.26136C13.9773 5.52273 13.6799 5.86364 13.4716 6.28409C13.2633 6.70455 13.1591 7.1553 13.1591 7.63636V8.40909C13.1591 9.06818 13.2727 9.62689 13.5 10.0852C13.7311 10.5398 14.0511 10.8864 14.4602 11.125C14.8693 11.3598 15.3447 11.4773 15.8864 11.4773C16.2386 11.4773 16.5568 11.428 16.8409 11.3295C17.1288 11.2273 17.3769 11.0758 17.5852 10.875C17.7936 10.6705 17.9545 10.4167 18.0682 10.1136L19.3636 10.4773C19.2273 10.9167 18.9981 11.303 18.6761 11.6364C18.3542 11.9659 17.9564 12.2235 17.483 12.4091C17.0095 12.5909 16.4773 12.6818 15.8864 12.6818ZM22.8807 0.863636V12.5H21.5398V0.863636H22.8807ZM28.9957 12.6818C28.1548 12.6818 27.4295 12.4962 26.8196 12.125C26.2135 11.75 25.7457 11.2273 25.4162 10.5568C25.0904 9.88258 24.9276 9.09848 24.9276 8.20455C24.9276 7.31061 25.0904 6.52273 25.4162 5.84091C25.7457 5.1553 26.2041 4.62121 26.7912 4.23864C27.3821 3.85227 28.0715 3.65909 28.8594 3.65909C29.3139 3.65909 29.7628 3.73485 30.206 3.88636C30.6491 4.03788 31.0526 4.28409 31.4162 4.625C31.7798 4.96212 32.0696 5.40909 32.2855 5.96591C32.5014 6.52273 32.6094 7.20833 32.6094 8.02273V8.59091H25.8821V7.43182H31.2457C31.2457 6.93939 31.1473 6.5 30.9503 6.11364C30.7571 5.72727 30.4806 5.42235 30.1207 5.19886C29.7647 4.97538 29.3442 4.86364 28.8594 4.86364C28.3253 4.86364 27.8632 4.99621 27.473 5.26136C27.0866 5.52273 26.7893 5.86364 26.581 6.28409C26.3726 6.70455 26.2685 7.1553 26.2685 7.63636V8.40909C26.2685 9.06818 26.3821 9.62689 26.6094 10.0852C26.8404 10.5398 27.1605 10.8864 27.5696 11.125C27.9787 11.3598 28.4541 11.4773 28.9957 11.4773C29.348 11.4773 29.6662 11.428 29.9503 11.3295C30.2382 11.2273 30.4863 11.0758 30.6946 10.875C30.9029 10.6705 31.0639 10.4167 31.1776 10.1136L32.473 10.4773C32.3366 10.9167 32.1075 11.303 31.7855 11.6364C31.4635 11.9659 31.0658 12.2235 30.5923 12.4091C30.1188 12.5909 29.5866 12.6818 28.9957 12.6818ZM38.4446 3.77273V4.90909H33.9219V3.77273H38.4446ZM35.2401 1.68182H36.581V10C36.581 10.3788 36.6359 10.6629 36.7457 10.8523C36.8594 11.0379 37.0033 11.1629 37.1776 11.2273C37.3556 11.2879 37.5431 11.3182 37.7401 11.3182C37.8878 11.3182 38.009 11.3106 38.1037 11.2955C38.1984 11.2765 38.2741 11.2614 38.331 11.25L38.6037 12.4545C38.5128 12.4886 38.3859 12.5227 38.223 12.5568C38.0601 12.5947 37.8537 12.6136 37.6037 12.6136C37.2249 12.6136 36.8537 12.5322 36.4901 12.3693C36.1302 12.2064 35.831 11.9583 35.5923 11.625C35.3575 11.2917 35.2401 10.8712 35.2401 10.3636V1.68182ZM44.027 12.6818C43.1861 12.6818 42.4607 12.4962 41.8509 12.125C41.2448 11.75 40.777 11.2273 40.4474 10.5568C40.1217 9.88258 39.9588 9.09848 39.9588 8.20455C39.9588 7.31061 40.1217 6.52273 40.4474 5.84091C40.777 5.1553 41.2353 4.62121 41.8224 4.23864C42.4134 3.85227 43.1027 3.65909 43.8906 3.65909C44.3452 3.65909 44.794 3.73485 45.2372 3.88636C45.6804 4.03788 46.0838 4.28409 46.4474 4.625C46.8111 4.96212 47.1009 5.40909 47.3168 5.96591C47.5327 6.52273 47.6406 7.20833 47.6406 8.02273V8.59091H40.9134V7.43182H46.277C46.277 6.93939 46.1785 6.5 45.9815 6.11364C45.7884 5.72727 45.5118 5.42235 45.152 5.19886C44.7959 4.97538 44.3755 4.86364 43.8906 4.86364C43.3565 4.86364 42.8944 4.99621 42.5043 5.26136C42.1179 5.52273 41.8205 5.86364 41.6122 6.28409C41.4039 6.70455 41.2997 7.1553 41.2997 7.63636V8.40909C41.2997 9.06818 41.4134 9.62689 41.6406 10.0852C41.8717 10.5398 42.1918 10.8864 42.6009 11.125C43.0099 11.3598 43.4853 11.4773 44.027 11.4773C44.3793 11.4773 44.6974 11.428 44.9815 11.3295C45.2694 11.2273 45.5175 11.0758 45.7259 10.875C45.9342 10.6705 46.0952 10.4167 46.2088 10.1136L47.5043 10.4773C47.3679 10.9167 47.1387 11.303 46.8168 11.6364C46.4948 11.9659 46.0971 12.2235 45.6236 12.4091C45.1501 12.5909 44.6179 12.6818 44.027 12.6818Z" fill="#2A3647"/>
</svg>
