<svg width="50" height="13" viewBox="0 0 50 13" fill="none" xmlns="http://www.w3.org/2000/svg">
<path d="M4.63636 12.5H0.511364V0.863636H4.67045C5.84091 0.863636 6.84848 1.09659 7.69318 1.5625C8.53788 2.02462 9.1875 2.68939 9.64205 3.55682C10.1004 4.42424 10.3295 5.46212 10.3295 6.67045C10.3295 7.88258 10.1004 8.92424 9.64205 9.79545C9.1875 10.6667 8.53409 11.3352 7.68182 11.8011C6.83333 12.267 5.81818 12.5 4.63636 12.5ZM2.97159 10.392H4.53409C5.26136 10.392 5.87311 10.2633 6.36932 10.0057C6.86932 9.74432 7.24432 9.34091 7.49432 8.79545C7.74811 8.24621 7.875 7.53788 7.875 6.67045C7.875 5.81061 7.74811 5.10795 7.49432 4.5625C7.24432 4.01705 6.87121 3.61553 6.375 3.35795C5.87879 3.10038 5.26705 2.97159 4.53977 2.97159H2.97159V10.392ZM16.0838 12.6705C15.1861 12.6705 14.4134 12.4886 13.7656 12.125C13.1217 11.7576 12.6255 11.2386 12.277 10.5682C11.9285 9.89394 11.7543 9.09659 11.7543 8.17614C11.7543 7.27841 11.9285 6.49053 12.277 5.8125C12.6255 5.13447 13.116 4.60606 13.7486 4.22727C14.3849 3.84848 15.1312 3.65909 15.9872 3.65909C16.563 3.65909 17.099 3.75189 17.5952 3.9375C18.0952 4.11932 18.5308 4.39394 18.902 4.76136C19.277 5.12879 19.5687 5.59091 19.777 6.14773C19.9853 6.70076 20.0895 7.34848 20.0895 8.09091V8.75568H12.7202V7.25568H17.8111C17.8111 6.9072 17.7353 6.59848 17.5838 6.32955C17.4323 6.06061 17.2221 5.85038 16.9531 5.69886C16.688 5.54356 16.3793 5.46591 16.027 5.46591C15.6596 5.46591 15.3338 5.55114 15.0497 5.72159C14.7694 5.88826 14.5497 6.11364 14.3906 6.39773C14.2315 6.67803 14.1501 6.99053 14.1463 7.33523V8.76136C14.1463 9.19318 14.2259 9.56629 14.3849 9.88068C14.5478 10.1951 14.777 10.4375 15.0724 10.608C15.3679 10.7784 15.7183 10.8636 16.1236 10.8636C16.3925 10.8636 16.6387 10.8258 16.8622 10.75C17.0857 10.6742 17.277 10.5606 17.4361 10.4091C17.5952 10.2576 17.7164 10.072 17.7997 9.85227L20.0384 10C19.9247 10.5379 19.6918 11.0076 19.3395 11.4091C18.991 11.8068 18.5402 12.1174 17.9872 12.3409C17.438 12.5606 16.8035 12.6705 16.0838 12.6705ZM24.0895 0.863636V12.5H21.669V0.863636H24.0895ZM30.0057 12.6705C29.108 12.6705 28.3352 12.4886 27.6875 12.125C27.0436 11.7576 26.5473 11.2386 26.1989 10.5682C25.8504 9.89394 25.6761 9.09659 25.6761 8.17614C25.6761 7.27841 25.8504 6.49053 26.1989 5.8125C26.5473 5.13447 27.0379 4.60606 27.6705 4.22727C28.3068 3.84848 29.053 3.65909 29.9091 3.65909C30.4848 3.65909 31.0208 3.75189 31.517 3.9375C32.017 4.11932 32.4527 4.39394 32.8239 4.76136C33.1989 5.12879 33.4905 5.59091 33.6989 6.14773C33.9072 6.70076 34.0114 7.34848 34.0114 8.09091V8.75568H26.642V7.25568H31.733C31.733 6.9072 31.6572 6.59848 31.5057 6.32955C31.3542 6.06061 31.1439 5.85038 30.875 5.69886C30.6098 5.54356 30.3011 5.46591 29.9489 5.46591C29.5814 5.46591 29.2557 5.55114 28.9716 5.72159C28.6913 5.88826 28.4716 6.11364 28.3125 6.39773C28.1534 6.67803 28.072 6.99053 28.0682 7.33523V8.76136C28.0682 9.19318 28.1477 9.56629 28.3068 9.88068C28.4697 10.1951 28.6989 10.4375 28.9943 10.608C29.2898 10.7784 29.6402 10.8636 30.0455 10.8636C30.3144 10.8636 30.5606 10.8258 30.7841 10.75C31.0076 10.6742 31.1989 10.5606 31.358 10.4091C31.517 10.2576 31.6383 10.072 31.7216 9.85227L33.9602 10C33.8466 10.5379 33.6136 11.0076 33.2614 11.4091C32.9129 11.8068 32.4621 12.1174 31.9091 12.3409C31.3598 12.5606 30.7254 12.6705 30.0057 12.6705ZM40.233 3.77273V5.59091H34.9773V3.77273H40.233ZM36.1705 1.68182H38.5909V9.81818C38.5909 10.0417 38.625 10.2159 38.6932 10.3409C38.7614 10.4621 38.8561 10.5473 38.9773 10.5966C39.1023 10.6458 39.2462 10.6705 39.4091 10.6705C39.5227 10.6705 39.6364 10.661 39.75 10.642C39.8636 10.6193 39.9508 10.6023 40.0114 10.5909L40.392 12.392C40.2708 12.4299 40.1004 12.4735 39.8807 12.5227C39.661 12.5758 39.3939 12.608 39.0795 12.6193C38.4962 12.642 37.9848 12.5644 37.5455 12.3864C37.1098 12.2083 36.7708 11.9318 36.5284 11.5568C36.286 11.1818 36.1667 10.7083 36.1705 10.1364V1.68182ZM45.6932 12.6705C44.7955 12.6705 44.0227 12.4886 43.375 12.125C42.7311 11.7576 42.2348 11.2386 41.8864 10.5682C41.5379 9.89394 41.3636 9.09659 41.3636 8.17614C41.3636 7.27841 41.5379 6.49053 41.8864 5.8125C42.2348 5.13447 42.7254 4.60606 43.358 4.22727C43.9943 3.84848 44.7405 3.65909 45.5966 3.65909C46.1723 3.65909 46.7083 3.75189 47.2045 3.9375C47.7045 4.11932 48.1402 4.39394 48.5114 4.76136C48.8864 5.12879 49.178 5.59091 49.3864 6.14773C49.5947 6.70076 49.6989 7.34848 49.6989 8.09091V8.75568H42.3295V7.25568H47.4205C47.4205 6.9072 47.3447 6.59848 47.1932 6.32955C47.0417 6.06061 46.8314 5.85038 46.5625 5.69886C46.2973 5.54356 45.9886 5.46591 45.6364 5.46591C45.2689 5.46591 44.9432 5.55114 44.6591 5.72159C44.3788 5.88826 44.1591 6.11364 44 6.39773C43.8409 6.67803 43.7595 6.99053 43.7557 7.33523V8.76136C43.7557 9.19318 43.8352 9.56629 43.9943 9.88068C44.1572 10.1951 44.3864 10.4375 44.6818 10.608C44.9773 10.7784 45.3277 10.8636 45.733 10.8636C46.0019 10.8636 46.2481 10.8258 46.4716 10.75C46.6951 10.6742 46.8864 10.5606 47.0455 10.4091C47.2045 10.2576 47.3258 10.072 47.4091 9.85227L49.6477 10C49.5341 10.5379 49.3011 11.0076 48.9489 11.4091C48.6004 11.8068 48.1496 12.1174 47.5966 12.3409C47.0473 12.5606 46.4129 12.6705 45.6932 12.6705Z" fill="#29ABE2"/>
</svg>
