<svg width="28" height="13" viewBox="0 0 28 13" fill="none" xmlns="http://www.w3.org/2000/svg">
<path d="M0.409091 12.5V0.863636H7.43182V2.11364H1.81818V6.04545H7.06818V7.29545H1.81818V11.25H7.52273V12.5H0.409091ZM13.0852 12.6818C12.358 12.6818 11.7159 12.4981 11.1591 12.1307C10.6023 11.7595 10.1667 11.2367 9.85227 10.5625C9.53788 9.88447 9.38068 9.08333 9.38068 8.15909C9.38068 7.24242 9.53788 6.44697 9.85227 5.77273C10.1667 5.09848 10.6042 4.57765 11.1648 4.21023C11.7254 3.8428 12.3731 3.65909 13.108 3.65909C13.6761 3.65909 14.125 3.75379 14.4545 3.94318C14.7879 4.12879 15.0417 4.34091 15.2159 4.57955C15.3939 4.81439 15.5322 5.00758 15.6307 5.15909H15.7443V0.863636H17.0852V12.5H15.7898V11.1591H15.6307C15.5322 11.3182 15.392 11.5189 15.2102 11.7614C15.0284 12 14.7689 12.214 14.4318 12.4034C14.0947 12.589 13.6458 12.6818 13.0852 12.6818ZM13.267 11.4773C13.8049 11.4773 14.2595 11.3371 14.6307 11.0568C15.0019 10.7727 15.2841 10.3807 15.4773 9.88068C15.6705 9.37689 15.767 8.79545 15.767 8.13636C15.767 7.48485 15.6723 6.91477 15.483 6.42614C15.2936 5.93371 15.0133 5.55114 14.642 5.27841C14.2708 5.00189 13.8125 4.86364 13.267 4.86364C12.6989 4.86364 12.2254 5.00947 11.8466 5.30114C11.4716 5.58902 11.1894 5.98106 11 6.47727C10.8144 6.9697 10.7216 7.52273 10.7216 8.13636C10.7216 8.75758 10.8163 9.32197 11.0057 9.82955C11.1989 10.3333 11.483 10.7348 11.858 11.0341C12.2367 11.3295 12.7064 11.4773 13.267 11.4773ZM19.7273 12.5V3.77273H21.0682V12.5H19.7273ZM20.4091 2.31818C20.1477 2.31818 19.9223 2.22917 19.733 2.05114C19.5473 1.87311 19.4545 1.65909 19.4545 1.40909C19.4545 1.15909 19.5473 0.945076 19.733 0.767045C19.9223 0.589015 20.1477 0.5 20.4091 0.5C20.6705 0.5 20.8939 0.589015 21.0795 0.767045C21.2689 0.945076 21.3636 1.15909 21.3636 1.40909C21.3636 1.65909 21.2689 1.87311 21.0795 2.05114C20.8939 2.22917 20.6705 2.31818 20.4091 2.31818ZM27.3196 3.77273V4.90909H22.7969V3.77273H27.3196ZM24.1151 1.68182H25.456V10C25.456 10.3788 25.5109 10.6629 25.6207 10.8523C25.7344 11.0379 25.8783 11.1629 26.0526 11.2273C26.2306 11.2879 26.4181 11.3182 26.6151 11.3182C26.7628 11.3182 26.884 11.3106 26.9787 11.2955C27.0734 11.2765 27.1491 11.2614 27.206 11.25L27.4787 12.4545C27.3878 12.4886 27.2609 12.5227 27.098 12.5568C26.9351 12.5947 26.7287 12.6136 26.4787 12.6136C26.0999 12.6136 25.7287 12.5322 25.3651 12.3693C25.0052 12.2064 24.706 11.9583 24.4673 11.625C24.2325 11.2917 24.1151 10.8712 24.1151 10.3636V1.68182Z" fill="#2A3647"/>
</svg>
