<svg width="30" height="13" viewBox="0 0 30 13" fill="none" xmlns="http://www.w3.org/2000/svg">
<path d="M0.0113636 12.5V0.863636H7.85227V2.89205H2.47159V5.66477H7.44886V7.69318H2.47159V10.4716H7.875V12.5H0.0113636ZM12.9787 12.642C12.3158 12.642 11.7154 12.4716 11.1776 12.1307C10.6435 11.786 10.2192 11.2803 9.90483 10.6136C9.59422 9.94318 9.43892 9.12121 9.43892 8.14773C9.43892 7.14773 9.59991 6.31629 9.92188 5.65341C10.2438 4.98674 10.6719 4.48864 11.206 4.15909C11.7438 3.82576 12.3329 3.65909 12.973 3.65909C13.4616 3.65909 13.8688 3.74242 14.1946 3.90909C14.5241 4.07197 14.7893 4.27652 14.9901 4.52273C15.1946 4.76515 15.3499 5.00379 15.456 5.23864H15.5298V0.863636H17.9446V12.5H15.5582V11.1023H15.456C15.3423 11.3447 15.1813 11.5852 14.973 11.8239C14.7685 12.0587 14.5014 12.2538 14.1719 12.4091C13.8461 12.5644 13.4484 12.642 12.9787 12.642ZM13.7457 10.7159C14.1359 10.7159 14.4654 10.6098 14.7344 10.3977C15.0071 10.1818 15.2154 9.88068 15.3594 9.49432C15.5071 9.10795 15.581 8.6553 15.581 8.13636C15.581 7.61742 15.509 7.16667 15.3651 6.78409C15.2211 6.40151 15.0128 6.10606 14.7401 5.89773C14.4673 5.68939 14.1359 5.58523 13.7457 5.58523C13.348 5.58523 13.0128 5.69318 12.7401 5.90909C12.4673 6.125 12.2609 6.42424 12.1207 6.80682C11.9806 7.18939 11.9105 7.63258 11.9105 8.13636C11.9105 8.64394 11.9806 9.0928 12.1207 9.48295C12.2647 9.86932 12.4711 10.1723 12.7401 10.392C13.0128 10.608 13.348 10.7159 13.7457 10.7159ZM19.9347 12.5V3.77273H22.3551V12.5H19.9347ZM21.1506 2.64773C20.7907 2.64773 20.482 2.52841 20.2244 2.28977C19.9706 2.04735 19.8438 1.75758 19.8438 1.42045C19.8438 1.08712 19.9706 0.801136 20.2244 0.5625C20.482 0.320075 20.7907 0.198863 21.1506 0.198863C21.5104 0.198863 21.8172 0.320075 22.071 0.5625C22.3286 0.801136 22.4574 1.08712 22.4574 1.42045C22.4574 1.75758 22.3286 2.04735 22.071 2.28977C21.8172 2.52841 21.5104 2.64773 21.1506 2.64773ZM28.9361 3.77273V5.59091H23.6804V3.77273H28.9361ZM24.8736 1.68182H27.294V9.81818C27.294 10.0417 27.3281 10.2159 27.3963 10.3409C27.4645 10.4621 27.5592 10.5473 27.6804 10.5966C27.8054 10.6458 27.9493 10.6705 28.1122 10.6705C28.2259 10.6705 28.3395 10.661 28.4531 10.642C28.5668 10.6193 28.6539 10.6023 28.7145 10.5909L29.0952 12.392C28.974 12.4299 28.8035 12.4735 28.5838 12.5227C28.3641 12.5758 28.0971 12.608 27.7827 12.6193C27.1993 12.642 26.688 12.5644 26.2486 12.3864C25.813 12.2083 25.474 11.9318 25.2315 11.5568C24.9891 11.1818 24.8698 10.7083 24.8736 10.1364V1.68182Z" fill="#29ABE2"/>
</svg>
